<mxfile host="app.diagrams.net" agent="Mozilla/5.0 (Windows NT 10.0; Win64; x64) AppleWebKit/537.36 (KHTML, like Gecko) Chrome/127.0.0.0 Safari/537.36" version="24.7.4">
  <diagram id="Ht1M8jgEwFfnCIfOTk4-" name="Page-1">
    <mxGraphModel dx="1588" dy="824" grid="1" gridSize="10" guides="1" tooltips="1" connect="0" arrows="1" fold="1" page="1" pageScale="1" pageWidth="1169" pageHeight="827" math="0" shadow="0">
      <root>
        <mxCell id="0" />
        <mxCell id="1" parent="0" />
        <mxCell id="bFJEvApRfuLX7Vfg4A0i-10" value="Public subnet 2A" style="points=[[0,0],[0.25,0],[0.5,0],[0.75,0],[1,0],[1,0.25],[1,0.5],[1,0.75],[1,1],[0.75,1],[0.5,1],[0.25,1],[0,1],[0,0.75],[0,0.5],[0,0.25]];outlineConnect=0;gradientColor=none;html=1;whiteSpace=wrap;fontSize=12;fontStyle=0;container=1;pointerEvents=0;collapsible=0;recursiveResize=0;shape=mxgraph.aws4.group;grIcon=mxgraph.aws4.group_security_group;grStroke=0;strokeColor=#7AA116;fillColor=#F2F6E8;verticalAlign=top;align=left;spacingLeft=30;fontColor=#248814;dashed=0;" parent="1" vertex="1">
          <mxGeometry x="280" y="201" width="200" height="160" as="geometry" />
        </mxCell>
        <mxCell id="UEzPUAAOIrF-is8g5C7q-74" value="&lt;font color=&quot;#147eba&quot;&gt;AWS Cloud&lt;/font&gt;" style="points=[[0,0],[0.25,0],[0.5,0],[0.75,0],[1,0],[1,0.25],[1,0.5],[1,0.75],[1,1],[0.75,1],[0.5,1],[0.25,1],[0,1],[0,0.75],[0,0.5],[0,0.25]];outlineConnect=0;gradientColor=none;html=1;whiteSpace=wrap;fontSize=12;fontStyle=0;shape=mxgraph.aws4.group;grIcon=mxgraph.aws4.group_aws_cloud_alt;strokeColor=#232F3E;fillColor=none;verticalAlign=top;align=left;spacingLeft=30;fontColor=#232F3E;dashed=0;labelBackgroundColor=#ffffff;container=1;pointerEvents=0;collapsible=0;recursiveResize=0;" parent="1" vertex="1">
          <mxGeometry x="120" y="41" width="920" height="760" as="geometry" />
        </mxCell>
        <mxCell id="bFJEvApRfuLX7Vfg4A0i-1" value="EU-West-2 (London Region)" style="points=[[0,0],[0.25,0],[0.5,0],[0.75,0],[1,0],[1,0.25],[1,0.5],[1,0.75],[1,1],[0.75,1],[0.5,1],[0.25,1],[0,1],[0,0.75],[0,0.5],[0,0.25]];outlineConnect=0;gradientColor=none;html=1;whiteSpace=wrap;fontSize=12;fontStyle=0;container=1;pointerEvents=0;collapsible=0;recursiveResize=0;shape=mxgraph.aws4.group;grIcon=mxgraph.aws4.group_region;strokeColor=#00A4A6;fillColor=none;verticalAlign=top;align=left;spacingLeft=30;fontColor=#147EBA;dashed=1;" parent="1" vertex="1">
          <mxGeometry x="160" y="81" width="840" height="680" as="geometry" />
        </mxCell>
        <mxCell id="bFJEvApRfuLX7Vfg4A0i-7" value="VPC" style="points=[[0,0],[0.25,0],[0.5,0],[0.75,0],[1,0],[1,0.25],[1,0.5],[1,0.75],[1,1],[0.75,1],[0.5,1],[0.25,1],[0,1],[0,0.75],[0,0.5],[0,0.25]];outlineConnect=0;gradientColor=none;html=1;whiteSpace=wrap;fontSize=12;fontStyle=0;container=1;pointerEvents=0;collapsible=0;recursiveResize=0;shape=mxgraph.aws4.group;grIcon=mxgraph.aws4.group_vpc2;strokeColor=#8C4FFF;fillColor=none;verticalAlign=top;align=left;spacingLeft=30;fontColor=#AAB7B8;dashed=0;" parent="bFJEvApRfuLX7Vfg4A0i-1" vertex="1">
          <mxGeometry x="40" y="70" width="760" height="480" as="geometry" />
        </mxCell>
        <mxCell id="bFJEvApRfuLX7Vfg4A0i-14" value="Availability Zone 2B" style="fillColor=none;strokeColor=#147EBA;dashed=1;verticalAlign=top;fontStyle=0;fontColor=#147EBA;whiteSpace=wrap;html=1;" parent="bFJEvApRfuLX7Vfg4A0i-7" vertex="1">
          <mxGeometry x="440" y="-30" width="280" height="540" as="geometry" />
        </mxCell>
        <mxCell id="bFJEvApRfuLX7Vfg4A0i-15" value="Public subnet 2B" style="points=[[0,0],[0.25,0],[0.5,0],[0.75,0],[1,0],[1,0.25],[1,0.5],[1,0.75],[1,1],[0.75,1],[0.5,1],[0.25,1],[0,1],[0,0.75],[0,0.5],[0,0.25]];outlineConnect=0;gradientColor=none;html=1;whiteSpace=wrap;fontSize=12;fontStyle=0;container=1;pointerEvents=0;collapsible=0;recursiveResize=0;shape=mxgraph.aws4.group;grIcon=mxgraph.aws4.group_security_group;grStroke=0;strokeColor=#7AA116;fillColor=#F2F6E8;verticalAlign=top;align=left;spacingLeft=30;fontColor=#248814;dashed=0;" parent="bFJEvApRfuLX7Vfg4A0i-7" vertex="1">
          <mxGeometry x="480" y="49" width="200" height="160" as="geometry" />
        </mxCell>
        <mxCell id="bFJEvApRfuLX7Vfg4A0i-39" value="Front-End Security Group" style="fontStyle=0;verticalAlign=top;align=center;spacingTop=-2;fillColor=none;rounded=0;whiteSpace=wrap;html=1;strokeColor=#FF0000;strokeWidth=2;dashed=1;container=1;collapsible=0;expand=0;recursiveResize=0;" parent="bFJEvApRfuLX7Vfg4A0i-15" vertex="1">
          <mxGeometry x="20" y="31" width="160" height="110" as="geometry" />
        </mxCell>
        <mxCell id="bFJEvApRfuLX7Vfg4A0i-50" value="" style="sketch=0;points=[[0,0,0],[0.25,0,0],[0.5,0,0],[0.75,0,0],[1,0,0],[0,1,0],[0.25,1,0],[0.5,1,0],[0.75,1,0],[1,1,0],[0,0.25,0],[0,0.5,0],[0,0.75,0],[1,0.25,0],[1,0.5,0],[1,0.75,0]];outlineConnect=0;fontColor=#232F3E;fillColor=#ED7100;strokeColor=#ffffff;dashed=0;verticalLabelPosition=bottom;verticalAlign=top;align=center;html=1;fontSize=12;fontStyle=0;aspect=fixed;shape=mxgraph.aws4.resourceIcon;resIcon=mxgraph.aws4.ec2;" parent="bFJEvApRfuLX7Vfg4A0i-39" vertex="1">
          <mxGeometry x="55" y="30" width="50" height="50" as="geometry" />
        </mxCell>
        <mxCell id="86LP6nbnS14rUYe7RWbr-28" value="&lt;div&gt;&lt;span style=&quot;background-color: initial;&quot;&gt;SimpleFrontEnd&amp;nbsp;&lt;/span&gt;&lt;br&gt;&lt;/div&gt;" style="text;html=1;align=center;verticalAlign=middle;whiteSpace=wrap;rounded=0;" parent="bFJEvApRfuLX7Vfg4A0i-39" vertex="1">
          <mxGeometry x="50" y="80" width="60" height="30" as="geometry" />
        </mxCell>
        <mxCell id="bFJEvApRfuLX7Vfg4A0i-16" value="Private subnet 2B" style="points=[[0,0],[0.25,0],[0.5,0],[0.75,0],[1,0],[1,0.25],[1,0.5],[1,0.75],[1,1],[0.75,1],[0.5,1],[0.25,1],[0,1],[0,0.75],[0,0.5],[0,0.25]];outlineConnect=0;gradientColor=none;html=1;whiteSpace=wrap;fontSize=12;fontStyle=0;container=1;pointerEvents=0;collapsible=0;recursiveResize=0;shape=mxgraph.aws4.group;grIcon=mxgraph.aws4.group_security_group;grStroke=0;strokeColor=#00A4A6;fillColor=#E6F6F7;verticalAlign=top;align=left;spacingLeft=30;fontColor=#147EBA;dashed=0;" parent="bFJEvApRfuLX7Vfg4A0i-7" vertex="1">
          <mxGeometry x="480" y="250" width="200" height="160" as="geometry" />
        </mxCell>
        <mxCell id="bFJEvApRfuLX7Vfg4A0i-40" value="Back-End Security Group" style="fontStyle=0;verticalAlign=top;align=center;spacingTop=-2;fillColor=none;rounded=0;whiteSpace=wrap;html=1;strokeColor=#FF0000;strokeWidth=2;dashed=1;container=1;collapsible=0;expand=0;recursiveResize=0;" parent="bFJEvApRfuLX7Vfg4A0i-16" vertex="1">
          <mxGeometry x="20" y="30" width="160" height="110" as="geometry" />
        </mxCell>
        <mxCell id="bFJEvApRfuLX7Vfg4A0i-51" value="" style="sketch=0;points=[[0,0,0],[0.25,0,0],[0.5,0,0],[0.75,0,0],[1,0,0],[0,1,0],[0.25,1,0],[0.5,1,0],[0.75,1,0],[1,1,0],[0,0.25,0],[0,0.5,0],[0,0.75,0],[1,0.25,0],[1,0.5,0],[1,0.75,0]];outlineConnect=0;fontColor=#232F3E;fillColor=#ED7100;strokeColor=#ffffff;dashed=0;verticalLabelPosition=bottom;verticalAlign=top;align=center;html=1;fontSize=12;fontStyle=0;aspect=fixed;shape=mxgraph.aws4.resourceIcon;resIcon=mxgraph.aws4.ec2;" parent="bFJEvApRfuLX7Vfg4A0i-40" vertex="1">
          <mxGeometry x="55" y="30" width="50" height="50" as="geometry" />
        </mxCell>
        <mxCell id="86LP6nbnS14rUYe7RWbr-30" value="&lt;div&gt;&lt;span style=&quot;background-color: initial;&quot;&gt;SimpleCrudApi&lt;/span&gt;&lt;br&gt;&lt;/div&gt;" style="text;html=1;align=center;verticalAlign=middle;whiteSpace=wrap;rounded=0;" parent="bFJEvApRfuLX7Vfg4A0i-40" vertex="1">
          <mxGeometry x="50" y="80" width="60" height="30" as="geometry" />
        </mxCell>
        <mxCell id="bFJEvApRfuLX7Vfg4A0i-18" value="" style="sketch=0;outlineConnect=0;fontColor=#232F3E;gradientColor=none;fillColor=#8C4FFF;strokeColor=none;dashed=0;verticalLabelPosition=bottom;verticalAlign=top;align=center;html=1;fontSize=12;fontStyle=0;aspect=fixed;pointerEvents=1;shape=mxgraph.aws4.endpoints;" parent="bFJEvApRfuLX7Vfg4A0i-7" vertex="1">
          <mxGeometry x="356" y="432" width="48" height="48" as="geometry" />
        </mxCell>
        <mxCell id="86LP6nbnS14rUYe7RWbr-1" value="" style="edgeStyle=orthogonalEdgeStyle;rounded=0;orthogonalLoop=1;jettySize=auto;html=1;entryX=0.5;entryY=0;entryDx=0;entryDy=0;" parent="bFJEvApRfuLX7Vfg4A0i-7" source="bFJEvApRfuLX7Vfg4A0i-22" target="bFJEvApRfuLX7Vfg4A0i-41" edge="1">
          <mxGeometry relative="1" as="geometry">
            <Array as="points" />
          </mxGeometry>
        </mxCell>
        <mxCell id="bFJEvApRfuLX7Vfg4A0i-22" value="" style="sketch=0;outlineConnect=0;fontColor=#232F3E;gradientColor=none;fillColor=#8C4FFF;strokeColor=none;dashed=0;verticalLabelPosition=bottom;verticalAlign=top;align=center;html=1;fontSize=12;fontStyle=0;aspect=fixed;pointerEvents=1;shape=mxgraph.aws4.internet_gateway;" parent="bFJEvApRfuLX7Vfg4A0i-7" vertex="1">
          <mxGeometry x="355.5" width="49" height="49" as="geometry" />
        </mxCell>
        <mxCell id="bFJEvApRfuLX7Vfg4A0i-41" value="App Load Balancer S.G." style="fontStyle=0;verticalAlign=top;align=center;spacingTop=-2;fillColor=none;rounded=0;whiteSpace=wrap;html=1;strokeColor=#FF0000;strokeWidth=2;dashed=1;container=1;collapsible=0;expand=0;recursiveResize=0;" parent="bFJEvApRfuLX7Vfg4A0i-7" vertex="1">
          <mxGeometry x="330" y="80" width="100" height="110" as="geometry" />
        </mxCell>
        <mxCell id="bFJEvApRfuLX7Vfg4A0i-42" value="" style="outlineConnect=0;dashed=0;verticalLabelPosition=bottom;verticalAlign=top;align=center;html=1;shape=mxgraph.aws3.application_load_balancer;fillColor=#F58534;gradientColor=none;" parent="bFJEvApRfuLX7Vfg4A0i-41" vertex="1">
          <mxGeometry x="23" y="30" width="54" height="50" as="geometry" />
        </mxCell>
        <mxCell id="86LP6nbnS14rUYe7RWbr-4" value="" style="edgeStyle=orthogonalEdgeStyle;rounded=0;orthogonalLoop=1;jettySize=auto;html=1;entryX=-0.018;entryY=0.452;entryDx=0;entryDy=0;entryPerimeter=0;" parent="bFJEvApRfuLX7Vfg4A0i-7" source="bFJEvApRfuLX7Vfg4A0i-44" target="bFJEvApRfuLX7Vfg4A0i-40" edge="1">
          <mxGeometry relative="1" as="geometry" />
        </mxCell>
        <mxCell id="bFJEvApRfuLX7Vfg4A0i-44" value="Internal App Load Balancer S.G." style="fontStyle=0;verticalAlign=top;align=center;spacingTop=-2;fillColor=none;rounded=0;whiteSpace=wrap;html=1;strokeColor=#FF0000;strokeWidth=2;dashed=1;container=1;collapsible=0;expand=0;recursiveResize=0;" parent="bFJEvApRfuLX7Vfg4A0i-7" vertex="1">
          <mxGeometry x="330" y="275" width="100" height="110" as="geometry" />
        </mxCell>
        <mxCell id="bFJEvApRfuLX7Vfg4A0i-45" value="" style="outlineConnect=0;dashed=0;verticalLabelPosition=bottom;verticalAlign=top;align=center;html=1;shape=mxgraph.aws3.application_load_balancer;fillColor=#F58534;gradientColor=none;" parent="bFJEvApRfuLX7Vfg4A0i-44" vertex="1">
          <mxGeometry x="23" y="30" width="54" height="50" as="geometry" />
        </mxCell>
        <mxCell id="86LP6nbnS14rUYe7RWbr-9" value="" style="edgeStyle=orthogonalEdgeStyle;rounded=0;orthogonalLoop=1;jettySize=auto;html=1;entryX=0;entryY=0.5;entryDx=0;entryDy=0;" parent="bFJEvApRfuLX7Vfg4A0i-7" target="bFJEvApRfuLX7Vfg4A0i-39" edge="1">
          <mxGeometry relative="1" as="geometry">
            <mxPoint x="430" y="134.8" as="sourcePoint" />
            <mxPoint x="480" y="134.8" as="targetPoint" />
          </mxGeometry>
        </mxCell>
        <mxCell id="86LP6nbnS14rUYe7RWbr-18" value="" style="edgeStyle=orthogonalEdgeStyle;rounded=0;orthogonalLoop=1;jettySize=auto;html=1;" parent="bFJEvApRfuLX7Vfg4A0i-7" target="bFJEvApRfuLX7Vfg4A0i-18" edge="1">
          <mxGeometry relative="1" as="geometry">
            <Array as="points">
              <mxPoint x="580" y="420" />
              <mxPoint x="424" y="420" />
              <mxPoint x="424" y="456" />
            </Array>
            <mxPoint x="580" y="409" as="sourcePoint" />
          </mxGeometry>
        </mxCell>
        <mxCell id="86LP6nbnS14rUYe7RWbr-21" value="" style="edgeStyle=orthogonalEdgeStyle;rounded=0;orthogonalLoop=1;jettySize=auto;html=1;exitX=0.5;exitY=1;exitDx=0;exitDy=0;entryX=0.697;entryY=-0.007;entryDx=0;entryDy=0;entryPerimeter=0;" parent="bFJEvApRfuLX7Vfg4A0i-7" target="bFJEvApRfuLX7Vfg4A0i-44" edge="1">
          <mxGeometry relative="1" as="geometry">
            <mxPoint x="580" y="190" as="sourcePoint" />
            <mxPoint x="400" y="270" as="targetPoint" />
            <Array as="points">
              <mxPoint x="580" y="220" />
              <mxPoint x="420" y="220" />
              <mxPoint x="420" y="256" />
              <mxPoint x="400" y="256" />
            </Array>
          </mxGeometry>
        </mxCell>
        <mxCell id="86LP6nbnS14rUYe7RWbr-24" value="Gateway Endpoint" style="text;html=1;align=center;verticalAlign=middle;whiteSpace=wrap;rounded=0;" parent="bFJEvApRfuLX7Vfg4A0i-7" vertex="1">
          <mxGeometry x="350" y="402" width="60" height="30" as="geometry" />
        </mxCell>
        <mxCell id="86LP6nbnS14rUYe7RWbr-23" value="" style="edgeStyle=orthogonalEdgeStyle;rounded=0;orthogonalLoop=1;jettySize=auto;html=1;exitX=0.5;exitY=1;exitDx=0;exitDy=0;" parent="bFJEvApRfuLX7Vfg4A0i-7" target="bFJEvApRfuLX7Vfg4A0i-44" edge="1">
          <mxGeometry relative="1" as="geometry">
            <mxPoint x="179" y="190" as="sourcePoint" />
            <mxPoint x="356" y="276" as="targetPoint" />
            <Array as="points">
              <mxPoint x="179" y="220" />
              <mxPoint x="340" y="220" />
              <mxPoint x="340" y="256" />
              <mxPoint x="360" y="256" />
            </Array>
          </mxGeometry>
        </mxCell>
        <mxCell id="bFJEvApRfuLX7Vfg4A0i-17" value="" style="sketch=0;points=[[0,0,0],[0.25,0,0],[0.5,0,0],[0.75,0,0],[1,0,0],[0,1,0],[0.25,1,0],[0.5,1,0],[0.75,1,0],[1,1,0],[0,0.25,0],[0,0.5,0],[0,0.75,0],[1,0.25,0],[1,0.5,0],[1,0.75,0]];outlineConnect=0;fontColor=#232F3E;fillColor=#C925D1;strokeColor=#ffffff;dashed=0;verticalLabelPosition=bottom;verticalAlign=top;align=center;html=1;fontSize=12;fontStyle=0;aspect=fixed;shape=mxgraph.aws4.resourceIcon;resIcon=mxgraph.aws4.dynamodb;" parent="bFJEvApRfuLX7Vfg4A0i-1" vertex="1">
          <mxGeometry x="400" y="600" width="40" height="40" as="geometry" />
        </mxCell>
        <mxCell id="86LP6nbnS14rUYe7RWbr-3" value="" style="edgeStyle=orthogonalEdgeStyle;rounded=0;orthogonalLoop=1;jettySize=auto;html=1;" parent="bFJEvApRfuLX7Vfg4A0i-1" source="bFJEvApRfuLX7Vfg4A0i-18" target="bFJEvApRfuLX7Vfg4A0i-17" edge="1">
          <mxGeometry relative="1" as="geometry" />
        </mxCell>
        <mxCell id="86LP6nbnS14rUYe7RWbr-25" value="&lt;div&gt;Internet&lt;/div&gt;Gateway&amp;nbsp;" style="text;html=1;align=center;verticalAlign=middle;whiteSpace=wrap;rounded=0;" parent="bFJEvApRfuLX7Vfg4A0i-1" vertex="1">
          <mxGeometry x="390" y="30" width="60" height="30" as="geometry" />
        </mxCell>
        <mxCell id="86LP6nbnS14rUYe7RWbr-26" value="DynamoDB&lt;div&gt;&lt;/div&gt;" style="text;html=1;align=center;verticalAlign=middle;whiteSpace=wrap;rounded=0;" parent="bFJEvApRfuLX7Vfg4A0i-1" vertex="1">
          <mxGeometry x="390" y="640" width="60" height="30" as="geometry" />
        </mxCell>
        <mxCell id="bFJEvApRfuLX7Vfg4A0i-2" style="edgeStyle=orthogonalEdgeStyle;rounded=0;orthogonalLoop=1;jettySize=auto;html=1;exitX=0.5;exitY=1;exitDx=0;exitDy=0;" parent="1" source="UEzPUAAOIrF-is8g5C7q-74" target="UEzPUAAOIrF-is8g5C7q-74" edge="1">
          <mxGeometry relative="1" as="geometry" />
        </mxCell>
        <mxCell id="bFJEvApRfuLX7Vfg4A0i-8" value="Availability Zone 2A" style="fillColor=none;strokeColor=#147EBA;dashed=1;verticalAlign=top;fontStyle=0;fontColor=#147EBA;whiteSpace=wrap;html=1;" parent="1" vertex="1">
          <mxGeometry x="240" y="121" width="280" height="540" as="geometry" />
        </mxCell>
        <mxCell id="bFJEvApRfuLX7Vfg4A0i-12" value="Private subnet 2A" style="points=[[0,0],[0.25,0],[0.5,0],[0.75,0],[1,0],[1,0.25],[1,0.5],[1,0.75],[1,1],[0.75,1],[0.5,1],[0.25,1],[0,1],[0,0.75],[0,0.5],[0,0.25]];outlineConnect=0;gradientColor=none;html=1;whiteSpace=wrap;fontSize=12;fontStyle=0;container=1;pointerEvents=0;collapsible=0;recursiveResize=0;shape=mxgraph.aws4.group;grIcon=mxgraph.aws4.group_security_group;grStroke=0;strokeColor=#00A4A6;fillColor=#E6F6F7;verticalAlign=top;align=left;spacingLeft=30;fontColor=#147EBA;dashed=0;" parent="1" vertex="1">
          <mxGeometry x="280" y="401" width="200" height="160" as="geometry" />
        </mxCell>
        <mxCell id="bFJEvApRfuLX7Vfg4A0i-38" value="Back-End Security Group" style="fontStyle=0;verticalAlign=top;align=center;spacingTop=-2;fillColor=none;rounded=0;whiteSpace=wrap;html=1;strokeColor=#FF0000;strokeWidth=2;dashed=1;container=1;collapsible=0;expand=0;recursiveResize=0;" parent="bFJEvApRfuLX7Vfg4A0i-12" vertex="1">
          <mxGeometry x="20" y="30" width="160" height="110" as="geometry" />
        </mxCell>
        <mxCell id="bFJEvApRfuLX7Vfg4A0i-49" value="" style="sketch=0;points=[[0,0,0],[0.25,0,0],[0.5,0,0],[0.75,0,0],[1,0,0],[0,1,0],[0.25,1,0],[0.5,1,0],[0.75,1,0],[1,1,0],[0,0.25,0],[0,0.5,0],[0,0.75,0],[1,0.25,0],[1,0.5,0],[1,0.75,0]];outlineConnect=0;fontColor=#232F3E;fillColor=#ED7100;strokeColor=#ffffff;dashed=0;verticalLabelPosition=bottom;verticalAlign=top;align=center;html=1;fontSize=12;fontStyle=0;aspect=fixed;shape=mxgraph.aws4.resourceIcon;resIcon=mxgraph.aws4.ec2;" parent="bFJEvApRfuLX7Vfg4A0i-38" vertex="1">
          <mxGeometry x="50" y="30" width="50" height="50" as="geometry" />
        </mxCell>
        <mxCell id="86LP6nbnS14rUYe7RWbr-29" value="&lt;div&gt;&lt;span style=&quot;background-color: initial;&quot;&gt;SimpleCrudApi&lt;/span&gt;&lt;br&gt;&lt;/div&gt;" style="text;html=1;align=center;verticalAlign=middle;whiteSpace=wrap;rounded=0;" parent="bFJEvApRfuLX7Vfg4A0i-38" vertex="1">
          <mxGeometry x="50" y="80" width="60" height="30" as="geometry" />
        </mxCell>
        <mxCell id="bFJEvApRfuLX7Vfg4A0i-37" value="Front-End Security Group" style="fontStyle=0;verticalAlign=top;align=center;spacingTop=-2;fillColor=none;rounded=0;whiteSpace=wrap;html=1;strokeColor=#FF0000;strokeWidth=2;dashed=1;container=1;collapsible=0;expand=0;recursiveResize=0;" parent="1" vertex="1">
          <mxGeometry x="300" y="231" width="160" height="110" as="geometry" />
        </mxCell>
        <mxCell id="bFJEvApRfuLX7Vfg4A0i-47" value="" style="sketch=0;points=[[0,0,0],[0.25,0,0],[0.5,0,0],[0.75,0,0],[1,0,0],[0,1,0],[0.25,1,0],[0.5,1,0],[0.75,1,0],[1,1,0],[0,0.25,0],[0,0.5,0],[0,0.75,0],[1,0.25,0],[1,0.5,0],[1,0.75,0]];outlineConnect=0;fontColor=#232F3E;fillColor=#ED7100;strokeColor=#ffffff;dashed=0;verticalLabelPosition=bottom;verticalAlign=top;align=center;html=1;fontSize=12;fontStyle=0;aspect=fixed;shape=mxgraph.aws4.resourceIcon;resIcon=mxgraph.aws4.ec2;" parent="bFJEvApRfuLX7Vfg4A0i-37" vertex="1">
          <mxGeometry x="55" y="30" width="50" height="50" as="geometry" />
        </mxCell>
        <mxCell id="86LP6nbnS14rUYe7RWbr-27" value="&lt;div&gt;&lt;span style=&quot;background-color: initial;&quot;&gt;SimpleFrontEnd&amp;nbsp;&lt;/span&gt;&lt;br&gt;&lt;/div&gt;" style="text;html=1;align=center;verticalAlign=middle;whiteSpace=wrap;rounded=0;" parent="bFJEvApRfuLX7Vfg4A0i-37" vertex="1">
          <mxGeometry x="50" y="80" width="60" height="30" as="geometry" />
        </mxCell>
        <mxCell id="86LP6nbnS14rUYe7RWbr-5" value="" style="edgeStyle=orthogonalEdgeStyle;rounded=0;orthogonalLoop=1;jettySize=auto;html=1;entryX=1.021;entryY=0.461;entryDx=0;entryDy=0;entryPerimeter=0;" parent="1" source="bFJEvApRfuLX7Vfg4A0i-44" target="bFJEvApRfuLX7Vfg4A0i-38" edge="1">
          <mxGeometry relative="1" as="geometry" />
        </mxCell>
        <mxCell id="86LP6nbnS14rUYe7RWbr-10" value="" style="edgeStyle=orthogonalEdgeStyle;rounded=0;orthogonalLoop=1;jettySize=auto;html=1;entryX=1;entryY=0.5;entryDx=0;entryDy=0;" parent="1" target="bFJEvApRfuLX7Vfg4A0i-37" edge="1">
          <mxGeometry relative="1" as="geometry">
            <mxPoint x="530" y="285.58000000000004" as="sourcePoint" />
            <mxPoint x="480" y="285.58000000000004" as="targetPoint" />
          </mxGeometry>
        </mxCell>
        <mxCell id="86LP6nbnS14rUYe7RWbr-19" value="" style="edgeStyle=orthogonalEdgeStyle;rounded=0;orthogonalLoop=1;jettySize=auto;html=1;entryX=0.5;entryY=1;entryDx=0;entryDy=0;" parent="1" edge="1">
          <mxGeometry relative="1" as="geometry">
            <mxPoint x="380" y="560" as="sourcePoint" />
            <mxPoint x="556" y="607" as="targetPoint" />
            <Array as="points">
              <mxPoint x="380" y="571" />
              <mxPoint x="536" y="571" />
              <mxPoint x="536" y="607" />
            </Array>
          </mxGeometry>
        </mxCell>
      </root>
    </mxGraphModel>
  </diagram>
</mxfile>
